<svg version="1.1" id="Layer_1" xmlns="http://www.w3.org/2000/svg" xmlns:xlink="http://www.w3.org/1999/xlink" x="0px" y="0px"
	 width="200%" viewBox="0 0 1080 1080" enable-background="new 0 0 1080 1080" xml:space="preserve">
<path fill="#010E0C" opacity="1.000000" stroke="none" 
	d="
M1.000000,472.000000 
	C1.000000,315.015167 1.000000,158.030350 1.000000,1.022768 
	C360.950043,1.022768 720.900085,1.022768 1080.925049,1.022768 
	C1080.925049,360.915192 1080.925049,720.830383 1080.925049,1080.872803 
	C721.119629,1080.872803 361.239197,1080.872803 1.000000,1080.872803 
	C1.000000,900.970764 1.000000,720.941345 1.347117,540.592590 
	C4.698386,551.887573 10.830187,556.768127 24.145130,557.895630 
	C28.667896,558.745972 32.780521,559.517273 37.101120,560.510986 
	C43.343830,561.371765 49.378571,562.010193 55.636765,562.672241 
	C55.636765,555.572205 55.636765,549.492676 55.636765,543.459167 
	C45.948589,542.013123 44.338573,539.882629 46.015903,530.493347 
	C47.097698,524.437744 48.554611,518.449341 49.650497,512.395996 
	C51.660721,501.292084 48.484303,494.692566 38.705410,489.187164 
	C38.206936,488.906555 37.754032,488.545013 36.624668,487.773560 
	C38.070805,487.369385 38.784191,487.128815 39.515530,486.971802 
	C50.588863,484.593903 57.363110,478.018219 59.579563,466.777374 
	C60.865765,460.254395 62.783192,453.841217 63.797871,447.282898 
	C65.307724,437.524078 69.008629,430.353821 80.537331,430.894958 
	C81.914871,424.430481 83.207214,418.365784 84.585938,411.895782 
	C80.656227,411.895782 77.347466,411.895782 73.997314,411.453003 
	C70.387413,410.599396 66.818893,410.188538 63.296806,409.396606 
	C63.207275,408.733826 63.089455,408.215881 62.932770,408.203857 
	C40.572491,406.485931 28.634409,411.342010 23.134970,432.377075 
	C20.830709,441.190735 19.363184,450.222046 17.098200,459.047363 
	C14.995842,467.239075 9.400664,471.458191 1.000000,472.000000 
M314.501678,481.713470 
	C329.030792,496.225647 343.593903,510.704010 358.066772,525.272034 
	C362.020386,529.251709 366.399933,531.744324 372.931610,531.050110 
	C376.746735,531.750366 380.561829,532.450623 384.813812,533.705444 
	C390.078979,534.138489 395.337769,534.804260 400.610870,534.949585 
	C408.351807,535.163086 416.102997,535.004578 423.576416,535.004578 
	C423.576416,525.330994 423.576416,516.424683 423.576416,507.244049 
	C420.045258,507.244049 416.893463,507.244049 413.383667,506.413239 
	C406.678741,505.644958 399.973785,504.876648 392.772095,503.609009 
	C380.353424,490.957245 367.934784,478.305481 355.340302,465.474609 
	C368.018982,452.837036 380.548828,440.178864 393.341614,427.792328 
	C395.109741,426.080383 398.143127,424.983612 400.653137,424.858948 
	C408.249268,424.481689 415.876068,424.722534 423.606110,424.722534 
	C423.606110,415.177246 423.606110,406.152740 423.606110,396.983185 
	C420.089386,396.983185 416.929260,396.983185 413.431183,396.133392 
	C409.944702,395.702301 406.458221,395.271210 402.920959,393.990753 
	C401.440582,393.656128 399.963196,393.048401 398.479340,393.032074 
	C390.018677,392.939056 381.545929,393.246216 373.098206,392.902985 
	C366.610077,392.639435 361.722229,394.962158 357.231812,399.523804 
	C342.918274,414.064606 328.364197,428.368591 313.690125,441.738342 
	C313.690125,426.910858 313.690125,412.083405 313.690125,396.975555 
	C309.754120,396.975555 306.460541,396.975555 302.994202,396.110474 
	C299.506805,395.685455 296.019409,395.260468 292.472900,394.061218 
	C292.153351,393.727692 291.835510,393.104736 291.513977,393.102814 
	C282.764496,393.049988 274.014679,393.060638 265.267029,393.060638 
	C265.267029,439.287170 265.267029,485.049713 265.267029,531.001892 
	C268.729462,531.001892 271.873291,531.001892 275.270264,531.796570 
	C278.817261,532.253418 282.364288,532.710266 285.965759,534.030396 
	C295.030609,534.505066 304.095459,534.979675 313.624542,535.478699 
	C313.624542,532.525024 313.614838,530.563660 313.626099,528.602356 
	C313.716827,512.823181 313.811523,497.044006 314.501678,481.713470 
M733.509277,481.043427 
	C733.509277,488.300934 733.509277,495.558411 733.509277,503.346069 
	C696.447083,503.346069 659.957764,503.346069 623.284241,503.346069 
	C623.284241,512.785034 623.284241,521.684265 623.284241,531.034851 
	C626.778320,531.034851 630.062378,531.034851 633.664673,531.879883 
	C637.131287,532.307434 640.597839,532.734924 644.118042,534.003967 
	C645.273926,534.338379 646.429382,534.963501 647.585693,534.965027 
	C683.377686,535.013123 719.170105,535.091003 754.961609,534.953125 
	C769.835571,534.895813 781.768677,522.856750 782.061646,507.913361 
	C782.244324,498.594330 782.211975,489.267609 782.088257,479.946838 
	C781.883850,464.539215 770.631775,453.058594 754.330627,452.046875 
	C750.294373,451.342285 746.258118,450.637695 741.793213,449.465302 
	C738.018860,449.007965 734.247070,448.181915 730.469666,448.155243 
	C711.009460,448.017700 691.547852,448.085175 671.914062,447.147400 
	C671.914062,439.732727 671.914062,432.318024 671.914062,424.592010 
	C708.993713,424.592010 745.368408,424.592010 781.810913,424.592010 
	C781.810913,415.229492 781.810913,406.205109 781.810913,396.975800 
	C778.328674,396.975800 775.177551,396.975800 771.791260,396.170349 
	C768.230896,395.725708 764.670532,395.281097 761.052063,393.972412 
	C759.887695,393.645752 758.723633,393.035217 757.558838,393.033630 
	C721.896484,392.984924 686.233643,392.904449 650.571777,393.041168 
	C635.464172,393.099091 623.441101,405.221863 623.125000,420.426483 
	C622.934570,429.588104 622.974792,438.758423 623.107422,447.921997 
	C623.330017,463.298523 634.561707,474.792358 650.870117,475.939911 
	C654.921082,476.656921 658.972046,477.373901 663.557129,478.626221 
	C667.321472,479.064148 671.082642,479.846466 674.850769,479.882202 
	C694.399048,480.067535 713.949097,480.062286 733.509277,481.043427 
M850.894531,447.176941 
	C850.894531,430.574524 850.894531,413.972137 850.894531,396.987946 
	C847.059082,396.987946 843.759460,396.987946 840.216980,396.127197 
	C836.763855,395.697845 833.310669,395.268524 829.800049,394.012390 
	C820.712158,393.523376 811.624207,393.034393 802.292969,392.532288 
	C802.292969,439.166748 802.292969,484.858795 802.292969,531.018494 
	C805.777039,531.018494 809.062378,531.018494 812.664734,531.866028 
	C816.131531,532.298035 819.598389,532.730042 823.118042,534.003662 
	C832.205139,534.484924 841.292175,534.966187 850.858154,535.472839 
	C850.858154,516.475403 850.858154,498.419586 850.858154,480.100189 
	C871.726868,480.100189 892.148132,480.100189 912.572266,481.023804 
	C912.572266,497.537903 912.572266,514.052002 912.572266,531.002625 
	C916.291077,531.002625 919.568604,531.002625 923.022034,531.845703 
	C926.514587,532.285278 930.007141,532.724915 933.625183,534.059265 
	C942.730164,534.503357 951.835144,534.947449 960.788696,535.384094 
	C960.788696,488.607819 960.788696,442.904510 960.788696,396.988312 
	C957.313293,396.988312 954.166077,396.988312 950.790100,396.179810 
	C947.230347,395.732422 943.670532,395.285034 940.052246,393.973358 
	C930.995911,393.509277 921.939575,393.045197 912.379578,392.555298 
	C912.379578,411.677185 912.379578,429.720459 912.379578,448.114258 
	C891.627747,448.114258 871.351562,448.114258 850.894531,447.176941 
M196.180939,481.029663 
	C196.180939,497.576508 196.180939,514.123352 196.180939,531.020813 
	C200.024414,531.020813 203.317459,531.020813 206.833344,531.881042 
	C210.275116,532.305420 213.716873,532.729736 217.225739,533.974792 
	C226.424438,534.455627 235.623123,534.936462 244.940567,535.423523 
	C244.940567,497.465759 245.071198,460.718597 244.876144,423.973145 
	C244.798325,409.316040 232.572891,397.417480 217.361557,397.009003 
	C213.299438,396.283234 209.237335,395.557434 204.612640,394.283081 
	C201.158890,393.854858 197.706558,393.068939 194.251175,393.055328 
	C167.919601,392.951447 141.587418,392.973907 115.255478,393.006897 
	C97.604996,393.028992 85.969215,404.743561 85.954727,422.511780 
	C85.926468,457.176636 85.943039,491.841583 85.956314,526.506470 
	C85.956863,527.943298 86.111771,529.380188 86.205452,531.001892 
	C89.718147,531.001892 92.867630,531.001892 96.270264,531.796570 
	C99.817268,532.253418 103.364273,532.710327 106.965759,534.030334 
	C116.045197,534.502502 125.124634,534.974670 134.755615,535.475525 
	C134.755615,516.366638 134.755615,498.308746 134.755615,480.106232 
	C155.575348,480.106232 175.872620,480.106232 196.180939,481.029663 
M554.180969,481.029663 
	C554.180969,497.576508 554.180969,514.123352 554.180969,531.020874 
	C558.024414,531.020874 561.317505,531.020874 564.833313,531.881042 
	C568.275085,532.305420 571.716858,532.729736 575.225769,533.974792 
	C584.424438,534.455688 593.623108,534.936523 602.940613,535.423584 
	C602.940613,497.465698 603.071289,460.718536 602.876099,423.973083 
	C602.798157,409.315643 590.572754,397.417358 575.361511,397.008972 
	C571.299377,396.283203 567.237305,395.557434 562.612610,394.283112 
	C559.158875,393.854858 555.706543,393.068939 552.251160,393.055298 
	C525.919617,392.951447 499.587402,392.973907 473.255463,393.006897 
	C455.604980,393.029022 443.969208,404.743591 443.954742,422.511810 
	C443.926483,457.176636 443.943024,491.841553 443.956299,526.506409 
	C443.956848,527.943298 444.111786,529.380188 444.205444,531.001892 
	C447.718140,531.001892 450.867645,531.001892 454.270264,531.796570 
	C457.817261,532.253418 461.364288,532.710327 464.965759,534.030334 
	C474.045197,534.502502 483.124603,534.974670 492.755585,535.475464 
	C492.755585,516.366638 492.755585,498.308807 492.755585,480.106232 
	C513.575317,480.106232 533.872559,480.106232 554.180969,481.029663 
M1000.018433,428.978577 
	C1000.018433,428.978577 999.951782,428.976562 1000.128845,429.711517 
	C1000.589172,432.398041 1001.717712,435.172516 1001.378052,437.753754 
	C1000.534973,444.160004 998.942078,450.463745 997.794128,456.834564 
	C995.464722,469.761688 998.321960,475.531708 1009.816833,481.527710 
	C1010.003174,481.624908 1009.997498,482.090271 1010.178223,482.722504 
	C995.989929,484.581726 988.872131,493.184631 986.794739,506.958008 
	C985.733337,513.995544 983.583252,520.861938 982.199341,527.859924 
	C980.884827,534.506958 976.740906,537.814697 970.361938,538.848145 
	C968.950012,539.076965 967.527344,539.239319 965.856750,539.466614 
	C965.856750,542.757935 965.856812,545.734070 965.856812,548.710266 
	C965.856812,551.806396 965.856750,554.902588 965.856750,558.005920 
	C969.659302,558.005920 972.805664,558.005920 976.165710,558.839111 
	C979.716675,559.272522 983.267639,559.705994 986.884766,561.025879 
	C987.347107,561.407104 987.800354,562.109802 988.273132,562.123169 
	C1006.616211,562.642395 1018.671814,558.824585 1024.010742,537.599976 
	C1025.991699,529.724243 1027.456787,521.719849 1029.234619,513.791565 
	C1031.454712,503.891327 1036.011719,499.522034 1045.823242,497.812347 
	C1048.401245,497.363159 1051.004639,497.058594 1053.694458,496.673523 
	C1054.896851,490.354370 1056.061035,484.236359 1057.206421,478.216248 
	C1053.400513,477.470032 1050.154175,476.833527 1046.179932,475.738983 
	C1045.910767,475.640381 1045.641724,475.541809 1044.821655,475.057098 
	C1039.563354,472.016449 1039.307861,467.188904 1040.303467,462.026794 
	C1041.809082,454.221008 1043.894531,446.499603 1044.932007,438.636597 
	C1047.098999,422.212524 1039.876831,413.678314 1022.413818,412.036377 
	C1018.240051,411.285065 1014.066284,410.533752 1009.540894,409.324554 
	C1004.135315,408.704651 998.729797,408.084747 993.077393,407.436554 
	C991.868958,414.338196 990.798035,420.454376 989.805054,426.125580 
	C993.720215,427.244141 996.871948,428.144592 1000.018433,428.978577 
z"/>
<path fill="#FDFEFF" opacity="1.000000" stroke="none" 
	d="
M36.893143,560.288574 
	C32.780521,559.517273 28.667896,558.745972 23.954277,557.651733 
	C14.427591,552.356995 10.720116,544.864136 12.475256,534.475830 
	C13.797246,526.651367 15.587700,518.907166 17.069582,511.108154 
	C19.199257,499.899963 14.624466,494.697327 2.999465,494.937256 
	C3.039238,494.939758 3.067344,495.014343 2.868451,494.796082 
	C2.113039,494.385193 1.556521,494.192596 1.000001,494.000000 
	C1.000000,492.285645 1.000000,490.571289 1.280610,488.167847 
	C2.454484,483.335693 3.347748,479.192596 4.216658,475.162476 
	C6.115574,475.036102 7.441421,474.996765 8.755794,474.852722 
	C21.000011,473.510864 26.032492,469.021545 28.702509,456.982452 
	C30.174826,450.343811 31.530186,443.679321 32.987179,437.037201 
	C37.076317,418.395599 44.501453,411.720123 63.250370,409.777710 
	C66.818893,410.188538 70.387413,410.599396 73.820114,411.799835 
	C72.411385,418.023010 71.138481,423.456604 69.918388,428.664795 
	C58.445480,430.126617 56.263336,432.147949 53.867496,442.978821 
	C52.253353,450.275848 50.474312,457.539825 49.026936,464.869507 
	C46.803112,476.131073 39.979374,482.620392 28.926949,484.979218 
	C28.073441,485.161377 27.248123,485.475647 26.012295,485.848358 
	C38.901264,493.314636 41.464966,499.021606 38.630180,513.242310 
	C37.526070,518.781006 36.194969,524.277161 35.200031,529.834351 
	C33.887566,537.165039 35.979816,539.955994 43.255074,541.127136 
	C43.861378,541.224731 44.439243,541.499023 44.999031,541.681030 
	C44.999031,547.846680 44.999031,553.768433 44.999031,560.288574 
	C42.115246,560.288574 39.504196,560.288574 36.893143,560.288574 
z"/>
<path fill="#FB04FB" opacity="1.000000" stroke="none" 
	d="
M63.296806,409.396606 
	C44.501453,411.720123 37.076317,418.395599 32.987179,437.037201 
	C31.530186,443.679321 30.174826,450.343811 28.702509,456.982452 
	C26.032492,469.021545 21.000011,473.510864 8.755794,474.852722 
	C7.441421,474.996765 6.115574,475.036102 4.216658,475.162476 
	C3.347748,479.192596 2.454484,483.335693 1.280610,487.739380 
	C1.000000,482.977905 1.000000,477.955811 1.000000,472.466858 
	C9.400664,471.458191 14.995842,467.239075 17.098200,459.047363 
	C19.363184,450.222046 20.830709,441.190735 23.134970,432.377075 
	C28.634409,411.342010 40.572491,406.485931 62.932770,408.203857 
	C63.089455,408.215881 63.207275,408.733826 63.296806,409.396606 
z"/>
<path fill="#FB04FB" opacity="1.000000" stroke="none" 
	d="
M2.959691,494.934723 
	C14.624466,494.697327 19.199257,499.899963 17.069582,511.108154 
	C15.587700,518.907166 13.797246,526.651367 12.475256,534.475830 
	C10.720116,544.864136 14.427591,552.356995 23.544134,557.572632 
	C10.830187,556.768127 4.698386,551.887573 1.347117,540.136658 
	C1.000000,538.285645 1.000000,536.571289 1.356465,534.261414 
	C3.386517,525.413269 5.034957,517.155457 6.742708,508.909851 
	C7.844115,503.591919 7.494568,498.707428 2.959691,494.934723 
z"/>
<path fill="#010E0C" opacity="1.000000" stroke="none" 
	d="
M2.999465,494.937256 
	C7.494568,498.707428 7.844115,503.591919 6.742708,508.909851 
	C5.034957,517.155457 3.386517,525.413269 1.356465,533.832947 
	C1.000000,521.312439 1.000000,508.624878 1.342760,495.411804 
	C2.146128,494.928955 2.606736,494.971649 3.067344,495.014343 
	C3.067344,495.014343 3.039238,494.939758 2.999465,494.937256 
z"/>
<path fill="#FB04FB" opacity="1.000000" stroke="none" 
	d="
M2.868451,494.796082 
	C2.606736,494.971649 2.146128,494.928955 1.342760,494.943115 
	C1.000000,495.000000 1.000000,494.500000 1.000001,494.250000 
	C1.556521,494.192596 2.113039,494.385193 2.868451,494.796082 
z"/>
<path fill="#FDFEFF" opacity="1.000000" stroke="none" 
	d="
M644.064453,533.162415 
	C640.597839,532.734924 637.131287,532.307434 633.644897,531.008240 
	C633.625061,522.022827 633.625061,513.909058 633.625061,505.271179 
	C670.713257,505.271179 707.115234,505.271179 743.800354,505.271179 
	C743.800354,496.459656 743.800354,488.177582 743.834045,479.469055 
	C743.080139,478.664368 742.292542,477.955597 741.505005,477.955688 
	C715.344360,477.958893 689.183655,478.029877 663.023010,478.090881 
	C658.972046,477.373901 654.921082,476.656921 650.276123,475.583557 
	C643.510925,472.150391 637.925964,467.807678 636.209534,461.204529 
	C631.939941,444.779480 631.311523,427.787262 636.377625,411.639313 
	C639.885010,400.459229 649.799561,395.076813 661.793823,395.030762 
	C694.898987,394.903625 728.004700,394.893127 761.110168,394.836487 
	C764.670532,395.281097 768.230896,395.725708 771.820984,397.036377 
	C771.850708,406.005249 771.850708,414.108093 771.850708,422.881592 
	C734.626099,422.881592 698.103760,422.881592 661.560425,422.881592 
	C661.560425,432.308350 661.560425,441.046936 661.560425,449.870667 
	C665.222107,449.870667 668.536377,449.870667 672.320801,449.967255 
	C695.934631,450.020264 719.078247,449.976715 742.221863,449.933136 
	C746.258118,450.637695 750.294373,451.342285 754.924377,452.399872 
	C766.561462,458.388855 771.794434,467.521545 771.795715,479.802246 
	C771.796509,487.133362 771.474792,494.481415 771.859924,501.792267 
	C772.862244,520.816528 758.252441,533.605347 740.519287,533.212524 
	C708.383118,532.500793 676.217651,533.106628 644.064453,533.162415 
z"/>
<path fill="#FEFEFF" opacity="1.000000" stroke="none" 
	d="
M205.175217,394.831665 
	C209.237335,395.557434 213.299438,396.283234 217.942062,397.351807 
	C229.225311,403.403625 234.421387,412.244873 234.381927,424.452026 
	C234.269867,459.110931 234.347885,493.770416 234.328979,528.429688 
	C234.328201,529.850464 234.103897,531.271118 233.944611,533.154114 
	C228.103394,533.154114 222.631012,533.154114 217.158646,533.154114 
	C213.716873,532.729736 210.275116,532.305420 206.816681,530.991333 
	C206.727325,513.364014 206.654617,496.626373 206.618637,479.482666 
	C205.203339,478.684784 203.752258,477.955414 202.299164,477.951294 
	C177.525482,477.881348 152.751541,477.895630 127.977669,477.917694 
	C126.722504,477.918823 125.467552,478.157104 123.779922,478.329041 
	C123.779922,496.687103 123.779922,514.720703 123.779922,533.167175 
	C117.843277,533.167175 112.377274,533.167175 106.911278,533.167175 
	C103.364273,532.710327 99.817268,532.253418 96.237457,530.938110 
	C96.220016,495.317352 96.225563,460.555023 96.254585,425.792725 
	C96.270683,406.507477 107.707199,395.027649 126.844604,394.996216 
	C152.954834,394.953369 179.065018,394.887604 205.175217,394.831665 
M206.606644,423.915649 
	C204.973190,423.528168 203.340744,422.808105 201.706131,422.803192 
	C177.595917,422.730743 153.485428,422.753235 129.375000,422.753235 
	C127.757507,422.753235 126.140007,422.753265 124.331924,422.753265 
	C124.331924,432.110596 124.331924,440.977631 124.331924,449.858978 
	C127.967239,449.858978 131.273697,449.858978 135.558273,450.060516 
	C159.152893,450.060516 182.747513,450.060516 206.552460,450.060516 
	C206.552460,441.262238 206.552460,432.988098 206.606644,423.915649 
z"/>
<path fill="#FEFEFF" opacity="1.000000" stroke="none" 
	d="
M464.911285,533.167175 
	C461.364288,532.710327 457.817261,532.253418 454.237457,530.938110 
	C454.220001,495.317352 454.225586,460.555023 454.254578,425.792725 
	C454.270660,406.507782 465.707367,395.027618 484.844604,394.996216 
	C510.954834,394.953339 537.065002,394.887604 563.175171,394.831665 
	C567.237305,395.557434 571.299377,396.283203 575.942017,397.351807 
	C587.225220,403.403656 592.421387,412.244751 592.381897,424.451996 
	C592.269714,459.110931 592.347839,493.770447 592.328979,528.429749 
	C592.328186,529.850525 592.103943,531.271179 591.944702,533.154114 
	C586.103394,533.154114 580.631042,533.154114 575.158630,533.154114 
	C571.716858,532.729736 568.275085,532.305420 564.816650,530.991333 
	C564.727295,513.364014 564.654602,496.626373 564.618652,479.482666 
	C563.203369,478.684753 561.752258,477.955383 560.299133,477.951294 
	C535.525452,477.881378 510.751495,477.895691 485.977631,477.917694 
	C484.722504,477.918793 483.467529,478.156982 481.779907,478.328857 
	C481.779907,496.687073 481.779907,514.720642 481.779907,533.167175 
	C475.843292,533.167175 470.377289,533.167175 464.911285,533.167175 
M493.558258,450.060486 
	C517.152893,450.060486 540.747498,450.060486 564.552429,450.060486 
	C564.552429,441.262238 564.552429,432.988098 564.606689,423.915741 
	C562.973267,423.528259 561.340820,422.808105 559.706299,422.803192 
	C535.596008,422.730743 511.485504,422.753235 487.375031,422.753235 
	C485.757538,422.753235 484.140015,422.753265 482.331848,422.753265 
	C482.331848,432.110565 482.331848,440.977600 482.331848,449.858978 
	C485.967194,449.858978 489.273651,449.858978 493.558258,450.060486 
z"/>
<path fill="#FEFEFF" opacity="1.000000" stroke="none" 
	d="
M402.971741,394.840118 
	C406.458221,395.271210 409.944702,395.702301 413.446777,397.000854 
	C413.462372,405.978699 413.462372,414.089081 413.462372,422.740417 
	C405.120178,422.740417 397.485870,422.522614 389.877289,422.869629 
	C387.514404,422.977386 384.652100,424.031036 382.987457,425.648804 
	C370.922516,437.373962 359.100159,449.348938 347.221863,461.265625 
	C346.339233,462.151154 345.619263,463.198853 344.677612,464.349701 
	C357.926331,477.552521 370.883545,490.502472 383.892944,503.399780 
	C386.738831,506.221100 389.974426,506.099884 393.268860,504.108368 
	C399.973785,504.876648 406.678741,505.644958 413.406799,507.247009 
	C413.429901,516.271729 413.429901,524.462708 413.429901,533.150818 
	C403.188782,533.150818 393.782867,533.150818 384.376953,533.150818 
	C380.561829,532.450623 376.746735,531.750366 372.397064,530.658447 
	C367.946655,526.421387 364.019684,522.587280 360.116943,518.728638 
	C346.992249,505.751953 333.876190,492.766510 320.545654,479.468811 
	C314.746185,478.568573 309.157928,477.983948 302.889771,477.328217 
	C302.889771,496.513947 302.889771,514.647400 302.889771,533.167175 
	C296.827911,533.167175 291.369598,533.167175 285.911285,533.167175 
	C282.364288,532.710266 278.817261,532.253418 275.237457,530.938110 
	C275.204651,485.236084 275.204651,440.392517 275.204651,394.835449 
	C281.334229,394.835449 286.933105,394.835449 292.532013,394.835449 
	C296.019409,395.260468 299.506805,395.685455 303.011963,397.008179 
	C303.029755,415.226898 303.029755,432.547913 303.029755,449.883667 
	C306.974609,449.883667 310.270935,449.883667 314.000244,449.969788 
	C317.875824,450.713379 320.275024,449.262787 322.694336,446.808136 
	C337.270142,432.019379 352.166931,417.544098 366.605072,402.623962 
	C371.841522,397.212646 377.419189,394.347748 385.049011,394.910217 
	C390.989258,395.348145 396.995056,394.896454 402.971741,394.840118 
z"/>
<path fill="#FEFFFF" opacity="1.000000" stroke="none" 
	d="
M823.065186,533.162048 
	C819.598389,532.730042 816.131531,532.298035 812.646484,530.994385 
	C812.628174,485.185883 812.628174,440.248962 812.628174,394.839172 
	C818.940369,394.839172 824.398926,394.839172 829.857544,394.839172 
	C833.310669,395.268524 836.763855,395.697845 840.235718,397.014526 
	C840.254456,415.206940 840.254456,432.511993 840.254456,449.906067 
	C844.264221,449.906067 847.559875,449.906067 851.326965,449.989227 
	C875.466492,450.072388 899.134460,450.072388 923.260437,450.072388 
	C923.260437,431.303772 923.260437,413.281311 923.260437,394.837616 
	C929.186401,394.837616 934.648621,394.837616 940.110779,394.837616 
	C943.670532,395.285034 947.230347,395.732422 950.814819,397.046265 
	C950.839478,442.760773 950.839478,487.608856 950.839478,533.164490 
	C944.700867,533.164490 939.100281,533.164490 933.499695,533.164551 
	C930.007141,532.724915 926.514587,532.285278 923.005371,530.960693 
	C922.939880,513.348938 922.891052,496.622223 922.860840,479.466949 
	C921.596069,478.656128 920.313538,477.943756 919.029114,477.940399 
	C893.934937,477.875000 868.840515,477.886444 843.746155,477.912140 
	C842.657898,477.913239 841.569946,478.200989 839.987427,478.425323 
	C839.987427,496.696991 839.987427,514.704834 839.987427,533.162048 
	C833.985718,533.162048 828.525452,533.162048 823.065186,533.162048 
z"/>
<path fill="#FDFEFF" opacity="1.000000" stroke="none" 
	d="
M1009.892517,409.782471 
	C1014.066284,410.533752 1018.240051,411.285065 1023.020142,412.363708 
	C1032.920532,417.745056 1036.562500,425.449280 1034.568604,436.567444 
	C1033.072021,444.912476 1031.158325,453.182007 1029.596069,461.516174 
	C1028.367432,468.070465 1031.113892,472.593872 1037.540039,474.445648 
	C1040.039185,475.165863 1042.755249,475.133026 1045.372559,475.443176 
	C1045.641724,475.541809 1045.910767,475.640381 1046.414551,476.368103 
	C1045.446533,482.966278 1044.243774,488.935303 1043.040405,494.907776 
	C1041.510010,495.009369 1040.521973,495.052887 1039.538330,495.143524 
	C1026.299683,496.363037 1021.298523,500.676697 1018.389282,513.535950 
	C1016.848938,520.344604 1015.477539,527.191284 1013.968018,534.007141 
	C1010.289551,550.617004 1003.489685,557.142822 986.818604,560.139465 
	C983.267639,559.705994 979.716675,559.272522 976.145935,557.961304 
	C976.126160,551.841736 976.126160,546.599976 976.126160,541.515259 
	C989.119202,539.612915 990.799500,538.064331 993.582153,525.919495 
	C995.360840,518.156311 997.016479,510.364166 998.864990,502.617889 
	C1000.945496,493.899872 1006.620972,488.567505 1015.059875,485.999939 
	C1016.889038,485.443451 1018.748718,484.987305 1021.882874,484.134155 
	C1005.917969,478.072174 1006.337708,466.339386 1009.113525,453.661896 
	C1010.248169,448.479767 1011.451233,443.279083 1012.045410,438.021545 
	C1012.648499,432.685150 1010.667419,430.391174 1005.398499,429.329346 
	C1003.631042,428.973114 1001.770020,429.080872 999.951782,428.976562 
	C999.951782,428.976562 1000.018433,428.978577 1000.097290,428.615234 
	C1001.293213,422.190857 1002.410339,416.129883 1003.580261,409.782440 
	C1005.991089,409.782440 1007.941772,409.782440 1009.892517,409.782471 
z"/>
<path fill="#05FBFB" opacity="1.000000" stroke="none" 
	d="
M37.101120,560.510986 
	C39.504196,560.288574 42.115246,560.288574 44.999031,560.288574 
	C44.999031,553.768433 44.999031,547.846680 44.999031,541.681030 
	C44.439243,541.499023 43.861378,541.224731 43.255074,541.127136 
	C35.979816,539.955994 33.887566,537.165039 35.200031,529.834351 
	C36.194969,524.277161 37.526070,518.781006 38.630180,513.242310 
	C41.464966,499.021606 38.901264,493.314636 26.012295,485.848358 
	C27.248123,485.475647 28.073441,485.161377 28.926949,484.979218 
	C39.979374,482.620392 46.803112,476.131073 49.026936,464.869507 
	C50.474312,457.539825 52.253353,450.275848 53.867496,442.978821 
	C56.263336,432.147949 58.445480,430.126617 69.918388,428.664795 
	C71.138481,423.456604 72.411385,418.023010 73.861496,412.242615 
	C77.347466,411.895782 80.656227,411.895782 84.585938,411.895782 
	C83.207214,418.365784 81.914871,424.430481 80.537331,430.894958 
	C69.008629,430.353821 65.307724,437.524078 63.797871,447.282898 
	C62.783192,453.841217 60.865765,460.254395 59.579563,466.777374 
	C57.363110,478.018219 50.588863,484.593903 39.515530,486.971802 
	C38.784191,487.128815 38.070805,487.369385 36.624668,487.773560 
	C37.754032,488.545013 38.206936,488.906555 38.705410,489.187164 
	C48.484303,494.692566 51.660721,501.292084 49.650497,512.395996 
	C48.554611,518.449341 47.097698,524.437744 46.015903,530.493347 
	C44.338573,539.882629 45.948589,542.013123 55.636765,543.459167 
	C55.636765,549.492676 55.636765,555.572205 55.636765,562.672241 
	C49.378571,562.010193 43.343830,561.371765 37.101120,560.510986 
z"/>
<path fill="#FE01FE" opacity="1.000000" stroke="none" 
	d="
M204.893921,394.557373 
	C179.065018,394.887604 152.954834,394.953369 126.844604,394.996216 
	C107.707199,395.027649 96.270683,406.507477 96.254585,425.792725 
	C96.225563,460.555023 96.220016,495.317352 96.110886,530.540771 
	C92.867630,531.001892 89.718147,531.001892 86.205452,531.001892 
	C86.111771,529.380188 85.956863,527.943298 85.956314,526.506470 
	C85.943039,491.841583 85.926468,457.176636 85.954727,422.511780 
	C85.969215,404.743561 97.604996,393.028992 115.255478,393.006897 
	C141.587418,392.973907 167.919601,392.951447 194.251175,393.055328 
	C197.706558,393.068939 201.158890,393.854858 204.893921,394.557373 
z"/>
<path fill="#FE01FE" opacity="1.000000" stroke="none" 
	d="
M562.893921,394.557373 
	C537.065002,394.887604 510.954834,394.953339 484.844604,394.996216 
	C465.707367,395.027618 454.270660,406.507782 454.254578,425.792725 
	C454.225586,460.555023 454.220001,495.317352 454.110901,530.540771 
	C450.867645,531.001892 447.718140,531.001892 444.205444,531.001892 
	C444.111786,529.380188 443.956848,527.943298 443.956299,526.506409 
	C443.943024,491.841553 443.926483,457.176636 443.954742,422.511810 
	C443.969208,404.743591 455.604980,393.029022 473.255463,393.006897 
	C499.587402,392.973907 525.919617,392.951447 552.251160,393.055298 
	C555.706543,393.068939 559.158875,393.854858 562.893921,394.557373 
z"/>
<path fill="#FB04FB" opacity="1.000000" stroke="none" 
	d="
M829.828796,394.425781 
	C824.398926,394.839172 818.940369,394.839172 812.628174,394.839172 
	C812.628174,440.248962 812.628174,485.185883 812.487915,530.570679 
	C809.062378,531.018494 805.777039,531.018494 802.292969,531.018494 
	C802.292969,484.858795 802.292969,439.166748 802.292969,392.532288 
	C811.624207,393.034393 820.712158,393.523376 829.828796,394.425781 
z"/>
<path fill="#0AFCFC" opacity="1.000000" stroke="none" 
	d="
M217.192200,533.564453 
	C222.631012,533.154114 228.103394,533.154114 233.944611,533.154114 
	C234.103897,531.271118 234.328201,529.850464 234.328979,528.429688 
	C234.347885,493.770416 234.269867,459.110931 234.381927,424.452026 
	C234.421387,412.244873 229.225311,403.403625 218.337250,397.436737 
	C232.572891,397.417480 244.798325,409.316040 244.876144,423.973145 
	C245.071198,460.718597 244.940567,497.465759 244.940567,535.423523 
	C235.623123,534.936462 226.424438,534.455627 217.192200,533.564453 
z"/>
<path fill="#0AFCFC" opacity="1.000000" stroke="none" 
	d="
M575.192200,533.564453 
	C580.631042,533.154114 586.103394,533.154114 591.944702,533.154114 
	C592.103943,531.271179 592.328186,529.850525 592.328979,528.429749 
	C592.347839,493.770447 592.269714,459.110931 592.381897,424.451996 
	C592.421387,412.244751 587.225220,403.403656 576.337158,397.436737 
	C590.572754,397.417358 602.798157,409.315643 602.876099,423.973083 
	C603.071289,460.718536 602.940613,497.465698 602.940613,535.423584 
	C593.623108,534.936523 584.424438,534.455688 575.192200,533.564453 
z"/>
<path fill="#FB04FB" opacity="1.000000" stroke="none" 
	d="
M1000.040283,429.344055 
	C1001.770020,429.080872 1003.631042,428.973114 1005.398499,429.329346 
	C1010.667419,430.391174 1012.648499,432.685150 1012.045410,438.021545 
	C1011.451233,443.279083 1010.248169,448.479767 1009.113525,453.661896 
	C1006.337708,466.339386 1005.917969,478.072174 1021.882874,484.134155 
	C1018.748718,484.987305 1016.889038,485.443451 1015.059875,485.999939 
	C1006.620972,488.567505 1000.945496,493.899872 998.864990,502.617889 
	C997.016479,510.364166 995.360840,518.156311 993.582153,525.919495 
	C990.799500,538.064331 989.119202,539.612915 976.126160,541.515259 
	C976.126160,546.599976 976.126160,551.841736 976.039124,557.544739 
	C972.805664,558.005920 969.659302,558.005920 965.856750,558.005920 
	C965.856750,554.902588 965.856812,551.806396 965.856812,548.710266 
	C965.856812,545.734070 965.856750,542.757935 965.856750,539.466614 
	C967.527344,539.239319 968.950012,539.076965 970.361938,538.848145 
	C976.740906,537.814697 980.884827,534.506958 982.199341,527.859924 
	C983.583252,520.861938 985.733337,513.995544 986.794739,506.958008 
	C988.872131,493.184631 995.989929,484.581726 1010.178223,482.722504 
	C1009.997498,482.090271 1010.003174,481.624908 1009.816833,481.527710 
	C998.321960,475.531708 995.464722,469.761688 997.794128,456.834564 
	C998.942078,450.463745 1000.534973,444.160004 1001.378052,437.753754 
	C1001.717712,435.172516 1000.589172,432.398041 1000.040283,429.344055 
z"/>
<path fill="#FE01FE" opacity="1.000000" stroke="none" 
	d="
M292.502441,394.448334 
	C286.933105,394.835449 281.334229,394.835449 275.204651,394.835449 
	C275.204651,440.392517 275.204651,485.236084 275.110901,530.540771 
	C271.873291,531.001892 268.729462,531.001892 265.267029,531.001892 
	C265.267029,485.049713 265.267029,439.287170 265.267029,393.060638 
	C274.014679,393.060638 282.764496,393.049988 291.513977,393.102814 
	C291.835510,393.104736 292.153351,393.727692 292.502441,394.448334 
z"/>
<path fill="#05FBFB" opacity="1.000000" stroke="none" 
	d="
M933.562439,533.611877 
	C939.100281,533.164490 944.700867,533.164490 950.839478,533.164490 
	C950.839478,487.608856 950.839478,442.760773 950.929138,397.450500 
	C954.166077,396.988312 957.313293,396.988312 960.788696,396.988312 
	C960.788696,442.904510 960.788696,488.607819 960.788696,535.384094 
	C951.835144,534.947449 942.730164,534.503357 933.562439,533.611877 
z"/>
<path fill="#05FBFB" opacity="1.000000" stroke="none" 
	d="
M393.020477,503.858704 
	C389.974426,506.099884 386.738831,506.221100 383.892944,503.399780 
	C370.883545,490.502472 357.926331,477.552521 344.677612,464.349701 
	C345.619263,463.198853 346.339233,462.151154 347.221863,461.265625 
	C359.100159,449.348938 370.922516,437.373962 382.987457,425.648804 
	C384.652100,424.031036 387.514404,422.977386 389.877289,422.869629 
	C397.485870,422.522614 405.120178,422.740417 413.462372,422.740417 
	C413.462372,414.089081 413.462372,405.978699 413.615753,397.425751 
	C416.929260,396.983185 420.089386,396.983185 423.606110,396.983185 
	C423.606110,406.152740 423.606110,415.177246 423.606110,424.722534 
	C415.876068,424.722534 408.249268,424.481689 400.653137,424.858948 
	C398.143127,424.983612 395.109741,426.080383 393.341614,427.792328 
	C380.548828,440.178864 368.018982,452.837036 355.340302,465.474609 
	C367.934784,478.305481 380.353424,490.957245 393.020477,503.858704 
z"/>
<path fill="#FB04FB" opacity="1.000000" stroke="none" 
	d="
M761.081116,394.404449 
	C728.004700,394.893127 694.898987,394.903625 661.793823,395.030762 
	C649.799561,395.076813 639.885010,400.459229 636.377625,411.639313 
	C631.311523,427.787262 631.939941,444.779480 636.209534,461.204529 
	C637.925964,467.807678 643.510925,472.150391 649.892212,475.482483 
	C634.561707,474.792358 623.330017,463.298523 623.107422,447.921997 
	C622.974792,438.758423 622.934570,429.588104 623.125000,420.426483 
	C623.441101,405.221863 635.464172,393.099091 650.571777,393.041168 
	C686.233643,392.904449 721.896484,392.984924 757.558838,393.033630 
	C758.723633,393.035217 759.887695,393.645752 761.081116,394.404449 
z"/>
<path fill="#05FBFB" opacity="1.000000" stroke="none" 
	d="
M644.091248,533.583191 
	C676.217651,533.106628 708.383118,532.500793 740.519287,533.212524 
	C758.252441,533.605347 772.862244,520.816528 771.859924,501.792267 
	C771.474792,494.481415 771.796509,487.133362 771.795715,479.802246 
	C771.794434,467.521545 766.561462,458.388855 755.320557,452.501343 
	C770.631775,453.058594 781.883850,464.539215 782.088257,479.946838 
	C782.211975,489.267609 782.244324,498.594330 782.061646,507.913361 
	C781.768677,522.856750 769.835571,534.895813 754.961609,534.953125 
	C719.170105,535.091003 683.377686,535.013123 647.585693,534.965027 
	C646.429382,534.963501 645.273926,534.338379 644.091248,533.583191 
z"/>
<path fill="#05FBFB" opacity="1.000000" stroke="none" 
	d="
M986.851685,560.582642 
	C1003.489685,557.142822 1010.289551,550.617004 1013.968018,534.007141 
	C1015.477539,527.191284 1016.848938,520.344604 1018.389282,513.535950 
	C1021.298523,500.676697 1026.299683,496.363037 1039.538330,495.143524 
	C1040.521973,495.052887 1041.510010,495.009369 1043.040405,494.907776 
	C1044.243774,488.935303 1045.446533,482.966278 1046.778564,476.597107 
	C1050.154175,476.833527 1053.400513,477.470032 1057.206421,478.216248 
	C1056.061035,484.236359 1054.896851,490.354370 1053.694458,496.673523 
	C1051.004639,497.058594 1048.401245,497.363159 1045.823242,497.812347 
	C1036.011719,499.522034 1031.454712,503.891327 1029.234619,513.791565 
	C1027.456787,521.719849 1025.991699,529.724243 1024.010742,537.599976 
	C1018.671814,558.824585 1006.616211,562.642395 988.273132,562.123169 
	C987.800354,562.109802 987.347107,561.407104 986.851685,560.582642 
z"/>
<path fill="#01F3F4" opacity="1.000000" stroke="none" 
	d="
M464.938538,533.598755 
	C470.377289,533.167175 475.843292,533.167175 481.779907,533.167175 
	C481.779907,514.720642 481.779907,496.687073 481.779907,478.328857 
	C483.467529,478.156982 484.722504,477.918793 485.977631,477.917694 
	C510.751495,477.895691 535.525452,477.881378 560.299133,477.951294 
	C561.752258,477.955383 563.203369,478.684753 564.195740,479.482239 
	C560.547363,479.960663 557.358582,480.033447 554.169861,480.106232 
	C533.872559,480.106232 513.575317,480.106232 492.755585,480.106232 
	C492.755585,498.308807 492.755585,516.366638 492.755585,535.475464 
	C483.124603,534.974670 474.045197,534.502502 464.938538,533.598755 
z"/>
<path fill="#01F3F4" opacity="1.000000" stroke="none" 
	d="
M106.938522,533.598755 
	C112.377274,533.167175 117.843277,533.167175 123.779922,533.167175 
	C123.779922,514.720703 123.779922,496.687103 123.779922,478.329041 
	C125.467552,478.157104 126.722504,477.918823 127.977669,477.917694 
	C152.751541,477.895630 177.525482,477.881348 202.299164,477.951294 
	C203.752258,477.955414 205.203339,478.684784 206.195709,479.482269 
	C202.547333,479.960693 199.358627,480.033478 196.169907,480.106232 
	C175.872620,480.106232 155.575348,480.106232 134.755615,480.106232 
	C134.755615,498.308746 134.755615,516.366638 134.755615,535.475525 
	C125.124634,534.974670 116.045197,534.502502 106.938522,533.598755 
z"/>
<path fill="#01F3F4" opacity="1.000000" stroke="none" 
	d="
M671.850586,449.870667 
	C668.536377,449.870667 665.222107,449.870667 661.560425,449.870667 
	C661.560425,441.046936 661.560425,432.308350 661.560425,422.881592 
	C698.103760,422.881592 734.626099,422.881592 771.850708,422.881592 
	C771.850708,414.108093 771.850708,406.005249 771.938538,397.439087 
	C775.177551,396.975800 778.328674,396.975800 781.810913,396.975800 
	C781.810913,406.205109 781.810913,415.229492 781.810913,424.592010 
	C745.368408,424.592010 708.993713,424.592010 671.914062,424.592010 
	C671.914062,432.318024 671.914062,439.732727 671.922241,447.906311 
	C671.903870,449.067017 671.877258,449.468842 671.850586,449.870667 
z"/>
<path fill="#05FBFB" opacity="1.000000" stroke="none" 
	d="
M823.091614,533.582886 
	C828.525452,533.162048 833.985718,533.162048 839.987427,533.162048 
	C839.987427,514.704834 839.987427,496.696991 839.987427,478.425323 
	C841.569946,478.200989 842.657898,477.913239 843.746155,477.912140 
	C868.840515,477.886444 893.934937,477.875000 919.029114,477.940399 
	C920.313538,477.943756 921.596069,478.656128 922.407776,479.467896 
	C918.813782,479.964996 915.691589,480.032593 912.569336,480.100189 
	C892.148132,480.100189 871.726868,480.100189 850.858154,480.100189 
	C850.858154,498.419586 850.858154,516.475403 850.858154,535.472839 
	C841.292175,534.966187 832.205139,534.484924 823.091614,533.582886 
z"/>
<path fill="#FB04FB" opacity="1.000000" stroke="none" 
	d="
M940.081543,394.405487 
	C934.648621,394.837616 929.186401,394.837616 923.260437,394.837616 
	C923.260437,413.281311 923.260437,431.303772 923.260437,450.072388 
	C899.134460,450.072388 875.466492,450.072388 851.337158,449.687561 
	C850.942383,448.906555 851.008850,448.510406 851.075317,448.114258 
	C871.351562,448.114258 891.627747,448.114258 912.379578,448.114258 
	C912.379578,429.720459 912.379578,411.677185 912.379578,392.555298 
	C921.939575,393.045197 930.995911,393.509277 940.081543,394.405487 
z"/>
<path fill="#F305F4" opacity="1.000000" stroke="none" 
	d="
M743.800354,479.895508 
	C743.800354,488.177582 743.800354,496.459656 743.800354,505.271179 
	C707.115234,505.271179 670.713257,505.271179 633.625061,505.271179 
	C633.625061,513.909058 633.625061,522.022827 633.485718,530.585693 
	C630.062378,531.034851 626.778320,531.034851 623.284241,531.034851 
	C623.284241,521.684265 623.284241,512.785034 623.284241,503.346069 
	C659.957764,503.346069 696.447083,503.346069 733.509277,503.346069 
	C733.509277,495.558411 733.509277,488.300934 733.916443,480.497925 
	C737.482544,479.933441 740.641418,479.914459 743.800354,479.895508 
z"/>
<path fill="#F806F9" opacity="1.000000" stroke="none" 
	d="
M402.946350,394.415436 
	C396.995056,394.896454 390.989258,395.348145 385.049011,394.910217 
	C377.419189,394.347748 371.841522,397.212646 366.605072,402.623962 
	C352.166931,417.544098 337.270142,432.019379 322.694336,446.808136 
	C320.275024,449.262787 317.875824,450.713379 314.002869,449.564636 
	C313.682709,446.970245 313.792847,444.867157 313.902985,442.764038 
	C328.364197,428.368591 342.918274,414.064606 357.231812,399.523804 
	C361.722229,394.962158 366.610077,392.639435 373.098206,392.902985 
	C381.545929,393.246216 390.018677,392.939056 398.479340,393.032074 
	C399.963196,393.048401 401.440582,393.656128 402.946350,394.415436 
z"/>
<path fill="#01F3F4" opacity="1.000000" stroke="none" 
	d="
M285.938538,533.598755 
	C291.369598,533.167175 296.827911,533.167175 302.889771,533.167175 
	C302.889771,514.647400 302.889771,496.513947 302.889771,477.328217 
	C309.157928,477.983948 314.746185,478.568573 320.146240,479.502502 
	C317.940338,480.322784 315.922668,480.793793 313.905029,481.264832 
	C313.811523,497.044006 313.716827,512.823181 313.626099,528.602356 
	C313.614838,530.563660 313.624542,532.525024 313.624542,535.478699 
	C304.095459,534.979675 295.030609,534.505066 285.938538,533.598755 
z"/>
<path fill="#05FBFB" opacity="1.000000" stroke="none" 
	d="
M1045.097168,475.250122 
	C1042.755249,475.133026 1040.039185,475.165863 1037.540039,474.445648 
	C1031.113892,472.593872 1028.367432,468.070465 1029.596069,461.516174 
	C1031.158325,453.182007 1033.072021,444.912476 1034.568604,436.567444 
	C1036.562500,425.449280 1032.920532,417.745056 1023.433716,412.447479 
	C1039.876831,413.678314 1047.098999,422.212524 1044.932007,438.636597 
	C1043.894531,446.499603 1041.809082,454.221008 1040.303467,462.026794 
	C1039.307861,467.188904 1039.563354,472.016449 1045.097168,475.250122 
z"/>
<path fill="#05FBFB" opacity="1.000000" stroke="none" 
	d="
M850.984924,447.645599 
	C851.008850,448.510406 850.942383,448.906555 850.865723,449.604370 
	C847.559875,449.906067 844.264221,449.906067 840.254456,449.906067 
	C840.254456,432.511993 840.254456,415.206940 840.357117,397.444885 
	C843.759460,396.987946 847.059082,396.987946 850.894531,396.987946 
	C850.894531,413.972137 850.894531,430.574524 850.984924,447.645599 
z"/>
<path fill="#01F3F4" opacity="1.000000" stroke="none" 
	d="
M313.796570,442.251221 
	C313.792847,444.867157 313.682709,446.970245 313.569916,449.478516 
	C310.270935,449.883667 306.974609,449.883667 303.029755,449.883667 
	C303.029755,432.547913 303.029755,415.226898 303.098358,397.440735 
	C306.460541,396.975555 309.754120,396.975555 313.690125,396.975555 
	C313.690125,412.083405 313.690125,426.910858 313.796570,442.251221 
z"/>
<path fill="#F806F9" opacity="1.000000" stroke="none" 
	d="
M554.175415,480.567932 
	C557.358582,480.033447 560.547363,479.960663 564.158997,479.888306 
	C564.654602,496.626373 564.727295,513.364014 564.705261,530.561279 
	C561.317505,531.020874 558.024414,531.020874 554.180969,531.020874 
	C554.180969,514.123352 554.180969,497.576508 554.175415,480.567932 
z"/>
<path fill="#F806F9" opacity="1.000000" stroke="none" 
	d="
M196.175415,480.567932 
	C199.358627,480.033478 202.547333,479.960693 206.158981,479.888306 
	C206.654617,496.626373 206.727325,513.364014 206.705261,530.561218 
	C203.317459,531.020813 200.024414,531.020813 196.180939,531.020813 
	C196.180939,514.123352 196.180939,497.576508 196.175415,480.567932 
z"/>
<path fill="#FE01FE" opacity="1.000000" stroke="none" 
	d="
M912.570801,480.562012 
	C915.691589,480.032593 918.813782,479.964996 922.389160,479.896423 
	C922.891052,496.622223 922.939880,513.348938 922.917480,530.539185 
	C919.568604,531.002625 916.291077,531.002625 912.572266,531.002625 
	C912.572266,514.052002 912.572266,497.537903 912.570801,480.562012 
z"/>
<path fill="#F305F4" opacity="1.000000" stroke="none" 
	d="
M314.203369,481.489136 
	C315.922668,480.793793 317.940338,480.322784 320.357422,479.818115 
	C333.876190,492.766510 346.992249,505.751953 360.116943,518.728638 
	C364.019684,522.587280 367.946655,526.421387 372.030823,530.558105 
	C366.399933,531.744324 362.020386,529.251709 358.066772,525.272034 
	C343.593903,510.704010 329.030792,496.225647 314.203369,481.489136 
z"/>
<path fill="#0AFCFC" opacity="1.000000" stroke="none" 
	d="
M384.595398,533.428101 
	C393.782867,533.150818 403.188782,533.150818 413.429901,533.150818 
	C413.429901,524.462708 413.429901,516.271729 413.585815,507.662415 
	C416.893463,507.244049 420.045258,507.244049 423.576416,507.244049 
	C423.576416,516.424683 423.576416,525.330994 423.576416,535.004578 
	C416.102997,535.004578 408.351807,535.163086 400.610870,534.949585 
	C395.337769,534.804260 390.078979,534.138489 384.595398,533.428101 
z"/>
<path fill="#FB04FB" opacity="1.000000" stroke="none" 
	d="
M1009.716675,409.553497 
	C1007.941772,409.782440 1005.991089,409.782440 1003.580261,409.782440 
	C1002.410339,416.129883 1001.293213,422.190857 1000.099854,428.648438 
	C996.871948,428.144592 993.720215,427.244141 989.805054,426.125580 
	C990.798035,420.454376 991.868958,414.338196 993.077393,407.436554 
	C998.729797,408.084747 1004.135315,408.704651 1009.716675,409.553497 
z"/>
<path fill="#03EAEC" opacity="1.000000" stroke="none" 
	d="
M743.834045,479.469055 
	C740.641418,479.914459 737.482544,479.933441 733.911072,480.037903 
	C713.949097,480.062286 694.399048,480.067535 674.850769,479.882202 
	C671.082642,479.846466 667.321472,479.064148 663.290039,478.358582 
	C689.183655,478.029877 715.344360,477.958893 741.505005,477.955688 
	C742.292542,477.955597 743.080139,478.664368 743.834045,479.469055 
z"/>
<path fill="#F305F4" opacity="1.000000" stroke="none" 
	d="
M672.320801,449.967255 
	C671.877258,449.468842 671.903870,449.067017 672.008606,448.373169 
	C691.547852,448.085175 711.009460,448.017700 730.469666,448.155243 
	C734.247070,448.181915 738.018860,449.007965 742.007568,449.699219 
	C719.078247,449.976715 695.934631,450.020264 672.320801,449.967255 
z"/>
<path fill="#03EAEC" opacity="1.000000" stroke="none" 
	d="
M134.580139,449.858978 
	C131.273697,449.858978 127.967239,449.858978 124.331924,449.858978 
	C124.331924,440.977631 124.331924,432.110596 124.331924,422.753265 
	C126.140007,422.753265 127.757507,422.753235 129.375000,422.753235 
	C153.485428,422.753235 177.595917,422.730743 201.706131,422.803192 
	C203.340744,422.808105 204.973190,423.528168 206.158936,424.316895 
	C202.523788,424.815674 199.336365,424.913208 195.679260,424.911804 
	C175.178146,424.812897 155.146713,424.812897 134.926361,424.812897 
	C134.926361,432.909088 134.926361,440.491791 134.820648,448.360901 
	C134.670013,449.051178 134.625076,449.455078 134.580139,449.858978 
z"/>
<path fill="#F305F4" opacity="1.000000" stroke="none" 
	d="
M196.148926,425.010712 
	C199.336365,424.913208 202.523788,424.815674 206.131836,424.716064 
	C206.552460,432.988098 206.552460,441.262238 206.552460,450.060516 
	C182.747513,450.060516 159.152893,450.060516 135.069214,449.959747 
	C134.625076,449.455078 134.670013,449.051178 135.294617,448.369049 
	C155.904724,448.090820 175.935181,448.090820 196.148926,448.090820 
	C196.148926,439.938904 196.148926,432.474792 196.148926,425.010712 
z"/>
<path fill="#03EAEC" opacity="1.000000" stroke="none" 
	d="
M492.580109,449.858978 
	C489.273651,449.858978 485.967194,449.858978 482.331848,449.858978 
	C482.331848,440.977600 482.331848,432.110565 482.331848,422.753265 
	C484.140015,422.753265 485.757538,422.753235 487.375031,422.753235 
	C511.485504,422.753235 535.596008,422.730743 559.706299,422.803192 
	C561.340820,422.808105 562.973267,423.528259 564.158936,424.316956 
	C560.523804,424.815704 557.336304,424.913239 553.679199,424.911835 
	C533.178101,424.812897 513.146667,424.812897 492.926361,424.812897 
	C492.926361,432.909454 492.926361,440.491974 492.820648,448.360901 
	C492.669983,449.051178 492.625031,449.455078 492.580109,449.858978 
z"/>
<path fill="#F305F4" opacity="1.000000" stroke="none" 
	d="
M554.148865,425.010742 
	C557.336304,424.913239 560.523804,424.815704 564.131836,424.716064 
	C564.552429,432.988098 564.552429,441.262238 564.552429,450.060486 
	C540.747498,450.060486 517.152893,450.060486 493.069183,449.959717 
	C492.625031,449.455078 492.669983,449.051178 493.294617,448.369049 
	C513.904724,448.090820 533.935181,448.090820 554.148865,448.090820 
	C554.148865,439.938934 554.148865,432.474823 554.148865,425.010742 
z"/>
<path fill="#010E0C" opacity="1.000000" stroke="none" 
	d="
M195.679260,424.911804 
	C196.148926,432.474792 196.148926,439.938904 196.148926,448.090820 
	C175.935181,448.090820 155.904724,448.090820 135.400330,448.082672 
	C134.926361,440.491791 134.926361,432.909088 134.926361,424.812897 
	C155.146713,424.812897 175.178146,424.812897 195.679260,424.911804 
z"/>
<path fill="#010E0C" opacity="1.000000" stroke="none" 
	d="
M553.679199,424.911804 
	C554.148865,432.474823 554.148865,439.938934 554.148865,448.090820 
	C533.935181,448.090820 513.904724,448.090820 493.400330,448.082672 
	C492.926361,440.491974 492.926361,432.909454 492.926361,424.812897 
	C513.146667,424.812897 533.178101,424.812897 553.679199,424.911804 
z"/>
</svg>